<svg width="393" height="182" viewBox="0 0 393 182" fill="none" xmlns="http://www.w3.org/2000/svg">
<path d="M0 0H393V166C393 174.837 385.837 182 377 182H16C7.16345 182 0 174.837 0 166V0Z" fill="#32D584"/>
<path d="M44.3858 58.2646C42.6697 58.2646 41.3304 57.7674 40.3681 56.773C39.4058 55.7626 38.9246 54.3672 38.9246 52.587V44.8884C38.9246 44.728 39.0048 44.6478 39.1652 44.6478H40.6328C40.8092 44.6478 40.8974 44.728 40.8974 44.8884V52.3464C40.8974 53.6615 41.1941 54.68 41.7875 55.4017C42.397 56.1074 43.2631 56.4603 44.3858 56.4603C45.5085 56.4603 46.3746 56.1074 46.984 55.4017C47.5935 54.696 47.8983 53.6776 47.8983 52.3464V44.8884C47.8983 44.728 47.9784 44.6478 48.1388 44.6478H49.6064C49.7828 44.6478 49.871 44.728 49.871 44.8884V52.587C49.871 54.3512 49.3818 55.7386 48.4035 56.749C47.4412 57.7594 46.1019 58.2646 44.3858 58.2646ZM57.7676 58.2646C56.5166 58.2646 55.4661 57.984 54.6161 57.4226C53.766 56.8452 53.1485 55.9791 52.7636 54.8244C52.7476 54.7923 52.7395 54.7522 52.7395 54.7041C52.7395 54.5918 52.8037 54.5196 52.932 54.4875L54.2311 54.1988L54.3274 54.1748C54.4236 54.1748 54.4958 54.2389 54.5439 54.3672C55.1213 55.8107 56.1959 56.5325 57.7676 56.5325C58.5696 56.5325 59.2031 56.348 59.6682 55.9791C60.1333 55.6102 60.3659 55.105 60.3659 54.4635C60.3659 53.3087 59.5479 52.5388 57.912 52.1539L57.094 51.9615C55.8109 51.6567 54.8486 51.1756 54.2071 50.518C53.5655 49.8444 53.2448 49.0103 53.2448 48.016C53.2448 46.8932 53.6297 46.0111 54.3995 45.3696C55.1854 44.712 56.244 44.3832 57.5752 44.3832C59.9168 44.3832 61.4565 45.4337 62.1943 47.5348L62.2184 47.631C62.2184 47.7273 62.1462 47.7994 62.0018 47.8475L60.799 48.1122H60.7268C60.6145 48.1122 60.5343 48.056 60.4862 47.9438C60.2296 47.3343 59.8527 46.8772 59.3555 46.5725C58.8583 46.2517 58.2648 46.0913 57.5752 46.0913C56.8374 46.0913 56.26 46.2597 55.843 46.5965C55.426 46.9173 55.2175 47.3584 55.2175 47.9197C55.2175 48.465 55.426 48.9221 55.843 49.291C56.26 49.6439 56.9176 49.9326 57.8158 50.1571L58.5856 50.3496C59.8527 50.6703 60.799 51.1675 61.4245 51.8412C62.05 52.4987 62.3627 53.3488 62.3627 54.3913C62.3627 55.5782 61.9457 56.5244 61.1117 57.2301C60.2937 57.9198 59.179 58.2646 57.7676 58.2646ZM52.7707 42.6991C52.5943 42.6991 52.5061 42.6109 52.5061 42.4345V41.3519C52.5061 41.1755 52.5943 41.0873 52.7707 41.0873H62.3699C62.5302 41.0873 62.6104 41.1675 62.6104 41.3278V41.809C62.6104 42.0817 62.5302 42.2982 62.3699 42.4586C62.2095 42.619 61.993 42.6991 61.7203 42.6991H52.7707ZM71.4153 44.6478C73.0352 44.6478 74.2701 45.0568 75.1202 45.8748C75.9863 46.6767 76.4193 47.8395 76.4193 49.3632V57.7354C76.4193 57.9118 76.3311 58 76.1547 58H74.7112C74.631 58 74.5669 57.9759 74.5187 57.9278C74.4706 57.8797 74.4466 57.8156 74.4466 57.7354V49.3632C74.4466 48.4009 74.1659 47.6631 73.6045 47.1499C73.0592 46.6366 72.2733 46.38 71.2469 46.38H67.566V57.7354C67.566 57.9118 67.4778 58 67.3014 58H65.8579C65.7777 58 65.7135 57.9759 65.6654 57.9278C65.6173 57.8797 65.5932 57.8156 65.5932 57.7354V44.8884C65.5932 44.728 65.6734 44.6478 65.8338 44.6478H71.4153ZM85.4948 58C85.3184 58 85.2302 57.9118 85.2302 57.7354V48.8099C85.2302 47.9919 85.0217 47.3503 84.6047 46.8852C84.2037 46.4201 83.6424 46.1875 82.9206 46.1875C82.3753 46.1875 81.9102 46.3319 81.5253 46.6206C81.1403 46.8932 80.8516 47.3022 80.6592 47.8475C80.579 48.0079 80.4667 48.0641 80.3224 48.016L79.0713 47.6551C79.0072 47.623 78.9591 47.5749 78.927 47.5107C78.8949 47.4466 78.8869 47.3824 78.9029 47.3183C79.2237 46.372 79.745 45.6503 80.4667 45.1531C81.1884 44.6398 82.0465 44.3832 83.0409 44.3832C84.324 44.3832 85.3344 44.7922 86.0722 45.6102C86.826 46.4121 87.2029 47.5027 87.2029 48.882V57.7354C87.2029 57.9118 87.1227 58 86.9623 58H85.4948ZM95.1233 58.2646C93.8722 58.2646 92.8217 57.984 91.9717 57.4226C91.1216 56.8452 90.5041 55.9791 90.1192 54.8244C90.1032 54.7923 90.0951 54.7522 90.0951 54.7041C90.0951 54.5918 90.1593 54.5196 90.2876 54.4875L91.5867 54.1988L91.683 54.1748C91.7792 54.1748 91.8514 54.2389 91.8995 54.3672C92.4769 55.8107 93.5515 56.5325 95.1233 56.5325C95.9252 56.5325 96.5587 56.348 97.0238 55.9791C97.489 55.6102 97.7215 55.105 97.7215 54.4635C97.7215 53.3087 96.9035 52.5388 95.2676 52.1539L94.4496 51.9615C93.1665 51.6567 92.2042 51.1756 91.5627 50.518C90.9211 49.8444 90.6004 49.0103 90.6004 48.016C90.6004 46.8932 90.9853 46.0111 91.7551 45.3696C92.541 44.712 93.5996 44.3832 94.9308 44.3832C97.2724 44.3832 98.8121 45.4337 99.5499 47.5348L99.574 47.631C99.574 47.7273 99.5018 47.7994 99.3575 47.8475L98.1546 48.1122H98.0824C97.9701 48.1122 97.8899 48.056 97.8418 47.9438C97.5852 47.3343 97.2083 46.8772 96.7111 46.5725C96.2139 46.2517 95.6205 46.0913 94.9308 46.0913C94.193 46.0913 93.6156 46.2597 93.1986 46.5965C92.7816 46.9173 92.5731 47.3584 92.5731 47.9197C92.5731 48.465 92.7816 48.9221 93.1986 49.291C93.6156 49.6439 94.2732 49.9326 95.1714 50.1571L95.9412 50.3496C97.2083 50.6703 98.1546 51.1675 98.7801 51.8412C99.4056 52.4987 99.7183 53.3488 99.7183 54.3913C99.7183 55.5782 99.3013 56.5244 98.4673 57.2301C97.6493 57.9198 96.5347 58.2646 95.1233 58.2646ZM107.015 58.2165C105.635 58.2165 104.553 57.7835 103.767 56.9174C102.981 56.0353 102.588 54.8163 102.588 53.2606V49.8925C102.588 48.7858 102.821 47.8155 103.286 46.9815C103.751 46.1474 104.408 45.5059 105.258 45.0568C106.125 44.6077 107.127 44.3832 108.266 44.3832C109.42 44.3832 110.431 44.6077 111.297 45.0568C112.163 45.5059 112.829 46.1474 113.294 46.9815C113.759 47.8155 113.991 48.7858 113.991 49.8925V57.7354C113.991 57.9118 113.903 58 113.727 58H112.259C112.099 58 112.019 57.9118 112.019 57.7354V50.1331C112.019 48.9141 111.682 47.9518 111.008 47.2461C110.351 46.5404 109.436 46.1875 108.266 46.1875C107.127 46.1875 106.221 46.5404 105.547 47.2461C104.89 47.9518 104.561 48.9141 104.561 50.1331V53.1162C104.561 54.1748 104.785 54.9928 105.234 55.5701C105.699 56.1475 106.365 56.4362 107.231 56.4362C107.728 56.4362 108.177 56.324 108.578 56.0994C108.627 56.0673 108.683 56.0513 108.747 56.0513C108.827 56.0513 108.883 56.0914 108.915 56.1716L109.42 57.2542C109.453 57.3184 109.469 57.3745 109.469 57.4226C109.469 57.4868 109.436 57.5509 109.372 57.6151C108.811 58.016 108.025 58.2165 107.015 58.2165ZM103.917 42.6991C103.741 42.6991 103.653 42.6109 103.653 42.4345V41.3519C103.653 41.1755 103.741 41.0873 103.917 41.0873H111.953V38.8258C111.953 38.6654 112.041 38.5852 112.217 38.5852H113.492C113.669 38.5852 113.757 38.6654 113.757 38.8258V41.809C113.757 42.0817 113.677 42.2982 113.516 42.4586C113.356 42.619 113.14 42.6991 112.867 42.6991H103.917ZM118.082 58C117.921 58 117.841 57.9118 117.841 57.7354V49.9406C117.841 48.2405 118.33 46.8932 119.309 45.8989C120.303 44.8884 121.634 44.3832 123.302 44.3832C125.019 44.3832 126.382 44.8884 127.392 45.8989C128.419 46.8932 128.932 48.2405 128.932 49.9406V57.7354C128.932 57.9118 128.852 58 128.691 58H127.224C127.047 58 126.959 57.9118 126.959 57.7354V50.2052C126.959 48.9382 126.638 47.9518 125.997 47.2461C125.355 46.5404 124.457 46.1875 123.302 46.1875C122.18 46.1875 121.306 46.5404 120.68 47.2461C120.071 47.9518 119.766 48.9382 119.766 50.2052V51.2397H123.856C124.016 51.2397 124.096 51.3199 124.096 51.4803V52.7073C124.096 52.8837 124.016 52.9719 123.856 52.9719H119.814V57.7354C119.814 57.9118 119.734 58 119.573 58H118.082ZM136.825 58.2646C135.574 58.2646 134.524 57.984 133.674 57.4226C132.824 56.8452 132.206 55.9791 131.821 54.8244C131.805 54.7923 131.797 54.7522 131.797 54.7041C131.797 54.5918 131.861 54.5196 131.99 54.4875L133.289 54.1988L133.385 54.1748C133.481 54.1748 133.553 54.2389 133.602 54.3672C134.179 55.8107 135.253 56.5325 136.825 56.5325C137.627 56.5325 138.261 56.348 138.726 55.9791C139.191 55.6102 139.424 55.105 139.424 54.4635C139.424 53.3087 138.606 52.5388 136.97 52.1539L136.152 51.9615C134.869 51.6567 133.906 51.1756 133.265 50.518C132.623 49.8444 132.302 49.0103 132.302 48.016C132.302 46.8932 132.687 46.0111 133.457 45.3696C134.243 44.712 135.302 44.3832 136.633 44.3832C138.974 44.3832 140.514 45.4337 141.252 47.5348L141.276 47.631C141.276 47.7273 141.204 47.7994 141.059 47.8475L139.857 48.1122H139.784C139.672 48.1122 139.592 48.056 139.544 47.9438C139.287 47.3343 138.91 46.8772 138.413 46.5725C137.916 46.2517 137.322 46.0913 136.633 46.0913C135.895 46.0913 135.318 46.2597 134.901 46.5965C134.484 46.9173 134.275 47.3584 134.275 47.9197C134.275 48.465 134.484 48.9221 134.901 49.291C135.318 49.6439 135.975 49.9326 136.873 50.1571L137.643 50.3496C138.91 50.6703 139.857 51.1675 140.482 51.8412C141.108 52.4987 141.42 53.3488 141.42 54.3913C141.42 55.5782 141.003 56.5244 140.169 57.2301C139.351 57.9198 138.237 58.2646 136.825 58.2646ZM149.992 58.2646C148.276 58.2646 146.936 57.7674 145.974 56.773C145.012 55.7626 144.531 54.3672 144.531 52.587V44.8884C144.531 44.728 144.611 44.6478 144.771 44.6478H146.239C146.415 44.6478 146.503 44.728 146.503 44.8884V52.3464C146.503 53.6615 146.8 54.68 147.393 55.4017C148.003 56.1074 148.869 56.4603 149.992 56.4603C151.114 56.4603 151.981 56.1074 152.59 55.4017C153.199 54.696 153.504 53.6776 153.504 52.3464V44.8884C153.504 44.728 153.584 44.6478 153.745 44.6478H155.212C155.389 44.6478 155.477 44.728 155.477 44.8884V52.587C155.477 54.3512 154.988 55.7386 154.009 56.749C153.047 57.7594 151.708 58.2646 149.992 58.2646ZM159.572 58C159.412 58 159.332 57.9118 159.332 57.7354V49.9406C159.332 48.2405 159.821 46.8932 160.799 45.8989C161.794 44.8884 163.125 44.3832 164.793 44.3832C166.509 44.3832 167.872 44.8884 168.883 45.8989C169.909 46.8932 170.423 48.2405 170.423 49.9406V57.7354C170.423 57.9118 170.342 58 170.182 58H168.714C168.538 58 168.45 57.9118 168.45 57.7354V50.2052C168.45 48.9382 168.129 47.9518 167.487 47.2461C166.846 46.5404 165.948 46.1875 164.793 46.1875C163.67 46.1875 162.796 46.5404 162.171 47.2461C161.561 47.9518 161.256 48.9382 161.256 50.2052V51.2397H165.346C165.507 51.2397 165.587 51.3199 165.587 51.4803V52.7073C165.587 52.8837 165.507 52.9719 165.346 52.9719H161.305V57.7354C161.305 57.9118 161.224 58 161.064 58H159.572ZM178.316 58.2646C177.065 58.2646 176.014 57.984 175.164 57.4226C174.314 56.8452 173.697 55.9791 173.312 54.8244C173.296 54.7923 173.288 54.7522 173.288 54.7041C173.288 54.5918 173.352 54.5196 173.48 54.4875L174.779 54.1988L174.876 54.1748C174.972 54.1748 175.044 54.2389 175.092 54.3672C175.669 55.8107 176.744 56.5325 178.316 56.5325C179.118 56.5325 179.751 56.348 180.216 55.9791C180.682 55.6102 180.914 55.105 180.914 54.4635C180.914 53.3087 180.096 52.5388 178.46 52.1539L177.642 51.9615C176.359 51.6567 175.397 51.1756 174.755 50.518C174.114 49.8444 173.793 49.0103 173.793 48.016C173.793 46.8932 174.178 46.0111 174.948 45.3696C175.734 44.712 176.792 44.3832 178.123 44.3832C180.465 44.3832 182.005 45.4337 182.742 47.5348L182.767 47.631C182.767 47.7273 182.694 47.7994 182.55 47.8475L181.347 48.1122H181.275C181.163 48.1122 181.082 48.056 181.034 47.9438C180.778 47.3343 180.401 46.8772 179.904 46.5725C179.406 46.2517 178.813 46.0913 178.123 46.0913C177.386 46.0913 176.808 46.2597 176.391 46.5965C175.974 46.9173 175.766 47.3584 175.766 47.9197C175.766 48.465 175.974 48.9221 176.391 49.291C176.808 49.6439 177.466 49.9326 178.364 50.1571L179.134 50.3496C180.401 50.6703 181.347 51.1675 181.973 51.8412C182.598 52.4987 182.911 53.3488 182.911 54.3913C182.911 55.5782 182.494 56.5244 181.66 57.2301C180.842 57.9198 179.727 58.2646 178.316 58.2646ZM179.791 42.6991C178.908 42.6991 178.235 42.4826 177.77 42.0496C177.288 41.6005 177.048 40.959 177.048 40.1249V39.2589C177.048 39.0824 177.128 38.9942 177.288 38.9942H178.588C178.748 38.9942 178.828 39.0824 178.828 39.2589V39.8603C178.828 40.2613 178.94 40.566 179.165 40.7745C179.373 40.983 179.686 41.0873 180.103 41.0873H185.324C185.5 41.0873 185.588 41.1755 185.588 41.3519V42.4345C185.588 42.6109 185.5 42.6991 185.324 42.6991H179.791ZM190.472 58.2646C189.076 58.2646 187.986 57.8316 187.2 56.9655C186.43 56.0994 186.045 54.8885 186.045 53.3328V44.8884C186.045 44.728 186.125 44.6478 186.286 44.6478H187.753C187.93 44.6478 188.018 44.728 188.018 44.8884V52.7554C188.018 53.9422 188.275 54.8564 188.788 55.498C189.317 56.1395 190.055 56.4603 191.001 56.4603C191.739 56.4603 192.405 56.2758 192.998 55.907C193.591 55.5381 194.056 55.0088 194.393 54.3191C194.746 53.6295 194.923 52.8195 194.923 51.8893V44.8884C194.923 44.728 195.003 44.6478 195.163 44.6478H196.631C196.807 44.6478 196.895 44.728 196.895 44.8884V57.7354C196.895 57.9118 196.807 58 196.631 58H195.332C195.155 58 195.067 57.9118 195.067 57.7354L194.995 55.6423C194.562 56.4603 193.944 57.1018 193.142 57.567C192.356 58.0321 191.466 58.2646 190.472 58.2646ZM201.423 58C201.263 58 201.183 57.9118 201.183 57.7354V44.8884C201.183 44.728 201.263 44.6478 201.423 44.6478H202.891C203.067 44.6478 203.155 44.728 203.155 44.8884V57.7354C203.155 57.9118 203.067 58 202.891 58H201.423ZM212.556 58.2646C210.84 58.2646 209.501 57.7674 208.539 56.773C207.576 55.7626 207.095 54.3672 207.095 52.587V44.8884C207.095 44.728 207.176 44.6478 207.336 44.6478H208.803C208.98 44.6478 209.068 44.728 209.068 44.8884V52.3464C209.068 53.6615 209.365 54.68 209.958 55.4017C210.568 56.1074 211.434 56.4603 212.556 56.4603C213.679 56.4603 214.545 56.1074 215.155 55.4017C215.764 54.696 216.069 53.6776 216.069 52.3464V39.6197C216.069 39.4593 216.149 39.3791 216.31 39.3791H217.777C217.953 39.3791 218.042 39.4593 218.042 39.6197V52.587C218.042 54.3512 217.553 55.7386 216.574 56.749C215.612 57.7594 214.273 58.2646 212.556 58.2646ZM209.122 39.0183C208.689 39.0183 208.344 39.1305 208.087 39.3551C207.831 39.5796 207.702 39.8763 207.702 40.2452C207.702 40.582 207.807 40.8547 208.015 41.0632C208.208 41.2717 208.48 41.376 208.833 41.376C209.378 41.376 209.836 40.983 210.204 40.1971C210.285 40.0688 210.389 40.0047 210.517 40.0047H211.143C211.255 40.0047 211.343 40.0608 211.407 40.1731L211.744 40.7505C211.856 40.9269 212.001 41.0552 212.177 41.1354C212.338 41.2156 212.562 41.2557 212.851 41.2557H214.102C214.278 41.2557 214.366 41.3439 214.366 41.5203V42.4345C214.366 42.6109 214.278 42.6991 214.102 42.6991H212.923C211.977 42.6991 211.311 42.3543 210.926 41.6647L210.806 41.4241C210.293 42.3864 209.507 42.8675 208.448 42.8675C207.678 42.8675 207.069 42.635 206.62 42.1699C206.155 41.7047 205.922 41.0792 205.922 40.2933C205.922 39.4433 206.195 38.7697 206.74 38.2725C207.285 37.7753 208.023 37.5267 208.953 37.5267H214.102C214.278 37.5267 214.366 37.6069 214.366 37.7673V38.7777C214.366 38.9381 214.278 39.0183 214.102 39.0183H209.122ZM226.347 58.2646C224.952 58.2646 223.861 57.8316 223.075 56.9655C222.306 56.0994 221.921 54.8885 221.921 53.3328V44.8884C221.921 44.728 222.001 44.6478 222.161 44.6478H223.629C223.805 44.6478 223.893 44.728 223.893 44.8884V52.7554C223.893 53.9422 224.15 54.8564 224.663 55.498C225.193 56.1395 225.93 56.4603 226.877 56.4603C227.614 56.4603 228.28 56.2758 228.873 55.907C229.467 55.5381 229.932 55.0088 230.269 54.3191C230.622 53.6295 230.798 52.8195 230.798 51.8893V44.8884C230.798 44.728 230.878 44.6478 231.039 44.6478H232.506C232.683 44.6478 232.771 44.728 232.771 44.8884V57.7354C232.771 57.9118 232.683 58 232.506 58H231.207C231.031 58 230.942 57.9118 230.942 57.7354L230.87 55.6423C230.437 56.4603 229.82 57.1018 229.018 57.567C228.232 58.0321 227.342 58.2646 226.347 58.2646ZM242.664 44.6478C244.284 44.6478 245.519 45.0568 246.369 45.8748C247.235 46.6767 247.668 47.8395 247.668 49.3632V57.7354C247.668 57.9118 247.58 58 247.403 58H245.96C245.879 58 245.815 57.9759 245.767 57.9278C245.719 57.8797 245.695 57.8156 245.695 57.7354V49.3632C245.695 48.4009 245.414 47.6631 244.853 47.1499C244.308 46.6366 243.522 46.38 242.495 46.38H238.814V57.7354C238.814 57.9118 238.726 58 238.55 58H237.106C237.026 58 236.962 57.9759 236.914 57.9278C236.866 57.8797 236.842 57.8156 236.842 57.7354V44.8884C236.842 44.728 236.922 44.6478 237.082 44.6478H242.664ZM244.07 42.6991C243.188 42.6991 242.515 42.4826 242.049 42.0496C241.568 41.6005 241.328 40.959 241.328 40.1249V39.2589C241.328 39.0824 241.408 38.9942 241.568 38.9942H242.867C243.028 38.9942 243.108 39.0824 243.108 39.2589V39.8603C243.108 40.2613 243.22 40.566 243.445 40.7745C243.653 40.983 243.966 41.0873 244.383 41.0873H249.604C249.78 41.0873 249.868 41.1755 249.868 41.3519V42.4345C249.868 42.6109 249.78 42.6991 249.604 42.6991H244.07ZM255.973 58.2646C254.578 58.2646 253.487 57.8316 252.701 56.9655C251.932 56.0994 251.547 54.8885 251.547 53.3328V44.8884C251.547 44.728 251.627 44.6478 251.787 44.6478H253.255C253.431 44.6478 253.519 44.728 253.519 44.8884V52.7554C253.519 53.9422 253.776 54.8564 254.289 55.498C254.819 56.1395 255.556 56.4603 256.503 56.4603C257.24 56.4603 257.906 56.2758 258.499 55.907C259.093 55.5381 259.558 55.0088 259.895 54.3191C260.248 53.6295 260.424 52.8195 260.424 51.8893V44.8884C260.424 44.728 260.504 44.6478 260.665 44.6478H262.132C262.309 44.6478 262.397 44.728 262.397 44.8884V57.7354C262.397 57.9118 262.309 58 262.132 58H260.833C260.657 58 260.568 57.9118 260.568 57.7354L260.496 55.6423C260.063 56.4603 259.446 57.1018 258.644 57.567C257.858 58.0321 256.968 58.2646 255.973 58.2646ZM266.925 58C266.764 58 266.684 57.9118 266.684 57.7354V44.8884C266.684 44.728 266.764 44.6478 266.925 44.6478H268.392C268.569 44.6478 268.657 44.728 268.657 44.8884V57.7354C268.657 57.9118 268.569 58 268.392 58H266.925ZM277.312 44.3832C278.563 44.3832 279.654 44.6719 280.584 45.2493C281.53 45.8106 282.252 46.6126 282.749 47.6551C283.263 48.6976 283.519 49.9165 283.519 51.3119C283.519 52.7233 283.271 53.9502 282.773 54.9928C282.276 56.0353 281.562 56.8452 280.632 57.4226C279.718 57.984 278.643 58.2646 277.408 58.2646C276.254 58.2646 275.243 58.0241 274.377 57.5429C273.527 57.0457 272.87 56.348 272.404 55.4499C271.939 54.5357 271.707 53.4691 271.707 52.2501V50.8307C271.707 50.6703 271.787 50.5902 271.947 50.5902H277.649C277.809 50.5902 277.89 50.6703 277.89 50.8307V52.0096C277.89 52.186 277.809 52.2742 277.649 52.2742H273.655V52.3464C273.655 53.5974 273.984 54.5998 274.642 55.3536C275.315 56.1074 276.214 56.4843 277.336 56.4843C278.603 56.4843 279.614 56.0112 280.368 55.0649C281.121 54.1187 281.498 52.8596 281.498 51.2878C281.498 49.716 281.113 48.4731 280.344 47.5588C279.574 46.6286 278.523 46.1635 277.192 46.1635C276.374 46.1635 275.636 46.364 274.979 46.7649C274.337 47.1499 273.864 47.6791 273.559 48.3528C273.527 48.433 273.487 48.4811 273.439 48.4971C273.391 48.5131 273.319 48.5131 273.222 48.4971L271.947 48.1122C271.787 48.0641 271.731 47.9518 271.779 47.7754C272.196 46.7168 272.902 45.8908 273.896 45.2974C274.89 44.6879 276.029 44.3832 277.312 44.3832ZM291.658 44.4313C293.134 44.4313 294.305 44.9606 295.171 46.0191C296.037 47.0617 296.47 48.4811 296.47 50.2774C296.47 52.0577 296.013 53.6054 295.099 54.9206C294.184 56.2358 292.861 57.2382 291.129 57.9278C291.033 57.9759 290.929 58 290.816 58H289.204C289.06 58 288.964 57.9198 288.916 57.7594L284.97 44.9125L284.946 44.8403C284.946 44.712 285.026 44.6478 285.187 44.6478H286.678C286.823 44.6478 286.919 44.72 286.967 44.8644L290.383 56.2438C291.73 55.7145 292.741 54.9366 293.415 53.9101C294.104 52.8837 294.449 51.6728 294.449 50.2774C294.449 49.0103 294.184 48.016 293.655 47.2942C293.126 46.5725 292.404 46.2116 291.49 46.2116C290.993 46.2116 290.568 46.3159 290.215 46.5244C290.151 46.5564 290.103 46.5725 290.07 46.5725C289.99 46.5725 289.926 46.5244 289.878 46.4281L289.373 45.3696C289.341 45.3054 289.325 45.2493 289.325 45.2012C289.325 45.121 289.365 45.0568 289.445 45.0087C290.006 44.6238 290.744 44.4313 291.658 44.4313ZM303.804 58.2165C302.409 58.2165 301.302 57.7755 300.484 56.8933C299.666 56.0112 299.257 54.8003 299.257 53.2606V49.8203C299.257 48.3929 299.578 47.222 300.219 46.3078C300.877 45.3776 301.823 44.7601 303.058 44.4554L305.199 45.7064L307.365 44.4554C308.487 44.7441 309.353 45.2894 309.963 46.0913C310.588 46.8772 310.901 47.8395 310.901 48.9783V57.7354C310.901 57.9118 310.813 58 310.636 58H309.169C309.009 58 308.928 57.9118 308.928 57.7354V48.882C308.928 48.2084 308.776 47.6471 308.471 47.198C308.183 46.7329 307.757 46.4201 307.196 46.2597L305.296 47.3664H305.127L303.227 46.2597C302.585 46.4682 302.088 46.8932 301.735 47.5348C301.398 48.1763 301.23 49.0023 301.23 50.0128V53.1162C301.23 54.1748 301.478 54.9928 301.976 55.5701C302.473 56.1475 303.154 56.4362 304.02 56.4362C304.518 56.4362 304.967 56.324 305.368 56.0994C305.464 56.0673 305.52 56.0513 305.536 56.0513C305.616 56.0513 305.672 56.0914 305.705 56.1716L306.21 57.2542C306.242 57.3184 306.258 57.3745 306.258 57.4226C306.258 57.4868 306.226 57.5509 306.162 57.6151C305.568 58.016 304.782 58.2165 303.804 58.2165ZM311.912 41.0873C312.072 41.0873 312.153 41.1755 312.153 41.3519V42.4345C312.153 42.6109 312.072 42.6991 311.912 42.6991H306.066C305.906 42.6991 305.825 42.6109 305.825 42.4345V40.1249H304.31C304.133 40.1249 304.045 40.0448 304.045 39.8844V38.8258C304.045 38.6654 304.133 38.5852 304.31 38.5852H306.499C306.836 38.5852 307.1 38.6815 307.293 38.8739C307.469 39.0504 307.558 39.315 307.558 39.6678V41.0873H311.912ZM319.484 44.3832C320.735 44.3832 321.826 44.6719 322.756 45.2493C323.702 45.8106 324.424 46.6126 324.921 47.6551C325.434 48.6976 325.691 49.9165 325.691 51.3119C325.691 52.7233 325.442 53.9502 324.945 54.9928C324.448 56.0353 323.734 56.8452 322.804 57.4226C321.89 57.984 320.815 58.2646 319.58 58.2646C318.426 58.2646 317.415 58.0241 316.549 57.5429C315.699 57.0457 315.041 56.348 314.576 55.4499C314.111 54.5357 313.879 53.4691 313.879 52.2501V50.8307C313.879 50.6703 313.959 50.5902 314.119 50.5902H319.821C319.981 50.5902 320.062 50.6703 320.062 50.8307V52.0096C320.062 52.186 319.981 52.2742 319.821 52.2742H315.827V52.3464C315.827 53.5974 316.156 54.5998 316.814 55.3536C317.487 56.1074 318.385 56.4843 319.508 56.4843C320.775 56.4843 321.786 56.0112 322.539 55.0649C323.293 54.1187 323.67 52.8596 323.67 51.2878C323.67 49.716 323.285 48.4731 322.515 47.5588C321.746 46.6286 320.695 46.1635 319.364 46.1635C318.546 46.1635 317.808 46.364 317.15 46.7649C316.509 47.1499 316.036 47.6791 315.731 48.3528C315.699 48.433 315.659 48.4811 315.611 48.4971C315.563 48.5131 315.49 48.5131 315.394 48.4971L314.119 48.1122C313.959 48.0641 313.903 47.9518 313.951 47.7754C314.368 46.7168 315.073 45.8908 316.068 45.2974C317.062 44.6879 318.201 44.3832 319.484 44.3832ZM333.83 44.4313C335.306 44.4313 336.477 44.9606 337.343 46.0191C338.209 47.0617 338.642 48.4811 338.642 50.2774C338.642 52.0577 338.185 53.6054 337.27 54.9206C336.356 56.2358 335.033 57.2382 333.301 57.9278C333.205 57.9759 333.1 58 332.988 58H331.376C331.232 58 331.136 57.9198 331.088 57.7594L327.142 44.9125L327.118 44.8403C327.118 44.712 327.198 44.6478 327.359 44.6478H328.85C328.995 44.6478 329.091 44.72 329.139 44.8644L332.555 56.2438C333.902 55.7145 334.913 54.9366 335.586 53.9101C336.276 52.8837 336.621 51.6728 336.621 50.2774C336.621 49.0103 336.356 48.016 335.827 47.2942C335.298 46.5725 334.576 46.2116 333.662 46.2116C333.165 46.2116 332.74 46.3159 332.387 46.5244C332.323 46.5564 332.274 46.5725 332.242 46.5725C332.162 46.5725 332.098 46.5244 332.05 46.4281L331.545 45.3696C331.513 45.3054 331.497 45.2493 331.497 45.2012C331.497 45.121 331.537 45.0568 331.617 45.0087C332.178 44.6238 332.916 44.4313 333.83 44.4313ZM342.006 58C341.846 58 341.766 57.9118 341.766 57.7354V44.8884C341.766 44.728 341.846 44.6478 342.006 44.6478H343.305C343.482 44.6478 343.57 44.728 343.57 44.8884L343.666 47.0055C344.099 46.1715 344.717 45.53 345.519 45.0809C346.321 44.6158 347.219 44.3832 348.213 44.3832C349.609 44.3832 350.699 44.8243 351.485 45.7064C352.287 46.5725 352.688 47.7754 352.688 49.3151V57.7354C352.688 57.9118 352.608 58 352.447 58H350.98C350.803 58 350.715 57.9118 350.715 57.7354V49.8925C350.715 48.7056 350.451 47.7914 349.921 47.1499C349.408 46.5083 348.662 46.1875 347.684 46.1875C346.93 46.1875 346.249 46.38 345.639 46.7649C345.046 47.1338 344.58 47.6631 344.244 48.3528C343.907 49.0424 343.738 49.8363 343.738 50.7345V57.7354C343.738 57.9118 343.65 58 343.474 58H342.006ZM342.617 42.6991C342.441 42.6991 342.353 42.6109 342.353 42.4345V41.3519C342.353 41.1755 342.441 41.0873 342.617 41.0873H350.653V38.8258C350.653 38.6654 350.741 38.5852 350.917 38.5852H352.192C352.369 38.5852 352.457 38.6654 352.457 38.8258V41.809C352.457 42.0817 352.377 42.2982 352.216 42.4586C352.056 42.619 351.84 42.6991 351.567 42.6991H342.617ZM350.917 36.9974C350.757 36.9974 350.677 36.9172 350.677 36.7568V33.4849C350.677 33.3085 350.757 33.2203 350.917 33.2203H352.144C352.321 33.2203 352.409 33.3085 352.409 33.4849V36.7568C352.409 36.9172 352.321 36.9974 352.144 36.9974H350.917Z" fill="white"/>
<path d="M49.543 112.6C48.5903 112.6 47.8108 112.325 47.2045 111.777C46.5983 111.199 46.2951 110.463 46.2951 109.568C46.2951 108.933 46.425 108.212 46.6849 107.403C46.9447 106.595 47.3922 105.512 48.0273 104.155L49.6729 100.648C49.8172 100.359 50.0482 100.215 50.3657 100.215H52.4876C52.6897 100.215 52.8341 100.272 52.9207 100.388C53.0073 100.503 53.0217 100.662 52.964 100.864L50.972 106.71C51.5494 106.941 51.9969 107.317 52.3144 107.836C52.6609 108.327 52.8341 108.89 52.8341 109.525C52.8341 110.42 52.5309 111.156 51.9247 111.734C51.3184 112.311 50.5245 112.6 49.543 112.6ZM57.8141 112.6C56.8614 112.6 56.0819 112.325 55.4756 111.777C54.8694 111.199 54.5663 110.463 54.5663 109.568C54.5663 108.933 54.6962 108.212 54.956 107.403C55.2158 106.595 55.6633 105.512 56.2984 104.155L57.944 100.648C58.0883 100.359 58.3193 100.215 58.6369 100.215H60.7588C60.9609 100.215 61.1052 100.272 61.1918 100.388C61.2784 100.503 61.2929 100.662 61.2351 100.864L59.2431 106.71C59.8205 106.941 60.268 107.317 60.5855 107.836C60.932 108.327 61.1052 108.89 61.1052 109.525C61.1052 110.42 60.8021 111.156 60.1958 111.734C59.5896 112.311 58.7956 112.6 57.8141 112.6ZM68.1178 132C67.7425 132 67.5548 131.812 67.5548 131.437V107.966C67.5548 107.591 67.7425 107.403 68.1178 107.403H72.7514C73.1267 107.403 73.3143 107.591 73.3143 107.966V131.437C73.3143 131.812 73.1267 132 72.7514 132H68.1178ZM101.809 107.143C102.185 107.143 102.372 107.331 102.372 107.706V111.344C102.372 111.719 102.185 111.907 101.809 111.907H97.5221C99.081 112.975 99.8605 114.678 99.8605 117.017V131.437C99.8605 131.812 99.6729 132 99.2976 132H94.664C94.2887 132 94.1011 131.812 94.1011 131.437V121.867H90.5501C88.587 121.867 87.1146 122.112 86.1331 122.603C85.1515 123.065 84.6607 123.815 84.6607 124.855C84.6607 125.634 84.935 126.241 85.4835 126.674C86.032 127.107 86.7826 127.323 87.7353 127.323C88.3416 127.323 88.8901 127.208 89.3809 126.977L89.7273 126.89C89.9005 126.89 90.0304 126.991 90.1171 127.193L91.6327 130.571C91.6904 130.744 91.7193 130.845 91.7193 130.874C91.7193 131.047 91.6327 131.206 91.4595 131.35C90.3913 132.072 88.8757 132.433 86.9125 132.433C84.4298 132.433 82.4666 131.827 81.0232 130.614C79.6085 129.373 78.9012 127.641 78.9012 125.418C78.9012 122.819 79.9117 120.799 81.9325 119.355C83.9823 117.912 86.8837 117.19 90.6367 117.19H94.1011V116.54C94.1011 115.155 93.6536 114.086 92.7586 113.336C91.8925 112.556 90.7089 112.167 89.2077 112.167C86.927 112.167 85.2814 113.062 84.271 114.851C84.0978 115.14 83.8524 115.241 83.5348 115.155L79.4642 113.899C79.06 113.754 78.9301 113.509 79.0745 113.163C79.9117 111.228 81.2252 109.742 83.0152 108.702C84.8339 107.663 86.9703 107.143 89.4242 107.143H101.809ZM80.2731 104.285C79.8978 104.285 79.7102 104.098 79.7102 103.722V100.345C79.7102 99.9692 79.8978 99.7816 80.2731 99.7816H94.2604V96.4472C94.2604 96.0719 94.4481 95.8842 94.8234 95.8842H98.8507C99.226 95.8842 99.4136 96.0719 99.4136 96.4472V101.99C99.4136 102.712 99.2115 103.275 98.8074 103.679C98.4032 104.083 97.8402 104.285 97.1185 104.285H80.2731ZM114.944 132C111.797 132 109.43 131.365 107.842 130.095C106.254 128.795 105.46 127.006 105.46 124.725C105.46 123.339 105.821 122.112 106.543 121.044C107.293 119.947 108.289 119.196 109.531 118.792C108.231 118.503 107.192 117.854 106.413 116.843C105.633 115.804 105.243 114.592 105.243 113.206C105.243 111.301 105.936 109.785 107.322 108.659C108.708 107.533 110.57 106.97 112.908 106.97C114.814 106.97 116.373 107.331 117.585 108.053C117.845 108.226 117.903 108.486 117.758 108.832L116.286 112.167C116.199 112.369 116.07 112.47 115.896 112.47L115.55 112.383C114.915 112.152 114.294 112.037 113.688 112.037C112.937 112.037 112.302 112.224 111.782 112.6C111.263 112.975 111.003 113.509 111.003 114.202C111.003 114.924 111.263 115.472 111.782 115.847C112.302 116.223 113.053 116.41 114.034 116.41H117.282C117.657 116.41 117.845 116.598 117.845 116.973V120.481C117.845 120.885 117.657 121.087 117.282 121.087H115.29C114.049 121.087 113.067 121.347 112.345 121.867C111.652 122.358 111.306 123.065 111.306 123.989C111.306 126.038 112.75 127.063 115.636 127.063H120.313C120.689 127.063 120.876 126.876 120.876 126.5V107.966C120.876 107.591 121.064 107.403 121.439 107.403H126.073C126.448 107.403 126.636 107.591 126.636 107.966V131.437C126.636 131.812 126.448 132 126.073 132H114.944ZM144.267 106.97C146.086 106.97 147.673 107.432 149.03 108.356C150.416 109.251 151.484 110.535 152.235 112.21C152.985 113.884 153.361 115.847 153.361 118.099C153.361 121.333 152.581 124.133 151.022 126.5C149.492 128.868 147.284 130.643 144.397 131.827C144.195 131.942 143.949 132 143.66 132H138.421C138.074 132 137.858 131.827 137.771 131.48L130.799 108.009C130.77 107.952 130.756 107.879 130.756 107.793C130.756 107.533 130.943 107.403 131.319 107.403H136.039C136.356 107.403 136.559 107.562 136.645 107.879L142.102 126.89C143.834 126.082 145.147 124.927 146.042 123.426C146.966 121.925 147.428 120.149 147.428 118.099C147.428 116.223 147.096 114.75 146.432 113.682C145.768 112.614 144.844 112.08 143.66 112.08C143.141 112.08 142.621 112.195 142.102 112.426L141.755 112.513C141.582 112.513 141.452 112.412 141.365 112.21L139.85 108.832C139.792 108.659 139.763 108.558 139.763 108.529C139.763 108.327 139.85 108.168 140.023 108.053C141.12 107.331 142.535 106.97 144.267 106.97ZM159.294 132C158.918 132 158.731 131.812 158.731 131.437V107.966C158.731 107.591 158.918 107.403 159.294 107.403H163.927C164.303 107.403 164.49 107.591 164.49 107.966V131.437C164.49 131.812 164.303 132 163.927 132H159.294ZM197.229 107.403C197.633 107.403 197.792 107.605 197.705 108.009L192.379 131.48C192.292 131.827 192.076 132 191.729 132H188.135C187.789 132 187.572 131.841 187.485 131.524L183.198 116.757L178.825 131.524C178.738 131.841 178.521 132 178.175 132H174.581C174.234 132 174.018 131.827 173.931 131.48L168.605 108.009L168.561 107.836C168.561 107.548 168.735 107.403 169.081 107.403H173.715C174.061 107.403 174.278 107.562 174.364 107.879L177.136 120.871L181.25 107.879C181.336 107.562 181.538 107.403 181.856 107.403H184.541C184.887 107.403 185.104 107.562 185.19 107.879L189.304 120.871L192.076 107.879C192.162 107.562 192.379 107.403 192.725 107.403H197.229ZM193.706 95.8842C194.081 95.8842 194.269 96.0719 194.269 96.4472V101.99C194.269 102.683 194.067 103.246 193.662 103.679C193.258 104.083 192.695 104.285 191.974 104.285H175.128C174.753 104.285 174.565 104.098 174.565 103.722V100.345C174.565 99.9692 174.753 99.7816 175.128 99.7816H183.702V96.4472C183.702 96.0719 183.89 95.8842 184.265 95.8842H187.297C187.672 95.8842 187.86 96.0719 187.86 96.4472V99.9981H189.938V96.4472C189.938 96.0719 190.126 95.8842 190.501 95.8842H193.706ZM189.765 93.4159C189.39 93.4159 189.202 93.2282 189.202 92.8529V86.0541C189.202 85.6788 189.39 85.4912 189.765 85.4912H193.619C193.994 85.4912 194.182 85.6788 194.182 86.0541V92.8529C194.182 93.2282 193.994 93.4159 193.619 93.4159H189.765ZM211.212 106.884C213.638 106.884 215.759 107.418 217.578 108.486C219.397 109.525 220.797 111.026 221.779 112.989C222.76 114.924 223.251 117.19 223.251 119.788C223.251 122.358 222.76 124.609 221.779 126.544C220.826 128.449 219.455 129.921 217.665 130.961C215.875 132 213.782 132.52 211.386 132.52C209.134 132.52 207.171 132.072 205.496 131.177C203.822 130.253 202.523 128.954 201.599 127.28C200.704 125.605 200.256 123.657 200.256 121.434V118.359C200.256 117.984 200.444 117.796 200.819 117.796H211.472C211.848 117.796 212.035 117.984 212.035 118.359V121.997C212.035 122.372 211.848 122.56 211.472 122.56H205.973C206.117 124.032 206.651 125.216 207.575 126.111C208.499 126.977 209.697 127.41 211.169 127.41C213.046 127.41 214.532 126.717 215.63 125.331C216.755 123.917 217.318 122.04 217.318 119.702C217.318 117.334 216.727 115.458 215.543 114.072C214.388 112.686 212.8 111.993 210.779 111.993C209.596 111.993 208.556 112.253 207.662 112.773C206.795 113.264 206.131 113.971 205.67 114.895C205.496 115.183 205.251 115.285 204.933 115.198L200.863 114.029C200.487 113.913 200.372 113.668 200.516 113.293C201.354 111.272 202.71 109.698 204.587 108.572C206.492 107.446 208.701 106.884 211.212 106.884ZM236.43 132.52C233.86 132.52 231.825 131.726 230.324 130.138C228.852 128.521 228.115 126.356 228.115 123.642V107.966C228.115 107.591 228.303 107.403 228.678 107.403H233.312C233.687 107.403 233.875 107.591 233.875 107.966V121.564C233.875 123.382 234.25 124.797 235.001 125.807C235.751 126.818 236.805 127.323 238.162 127.323C239.75 127.323 241.078 126.674 242.146 125.374C243.214 124.046 243.748 122.285 243.748 120.091V107.966C243.748 107.591 243.936 107.403 244.311 107.403H248.945C249.32 107.403 249.508 107.591 249.508 107.966V131.437C249.508 131.812 249.32 132 248.945 132H244.701C244.326 132 244.138 131.812 244.138 131.437L244.008 128.622C243.171 129.864 242.088 130.831 240.76 131.524C239.461 132.188 238.018 132.52 236.43 132.52ZM266.511 132.52C264.346 132.52 262.44 132.101 260.795 131.264C259.178 130.427 257.922 129.243 257.027 127.713C256.161 126.154 255.728 124.35 255.728 122.3V107.966C255.728 107.591 255.916 107.403 256.291 107.403H260.925C261.3 107.403 261.488 107.591 261.488 107.966V121.434C261.488 123.31 261.921 124.768 262.787 125.807C263.653 126.818 264.894 127.323 266.511 127.323C268.128 127.323 269.369 126.818 270.235 125.807C271.101 124.768 271.534 123.31 271.534 121.434V107.966C271.534 107.591 271.722 107.403 272.097 107.403H276.731C277.106 107.403 277.294 107.591 277.294 107.966V122.3C277.294 124.35 276.846 126.154 275.951 127.713C275.085 129.243 273.829 130.427 272.184 131.264C270.567 132.101 268.676 132.52 266.511 132.52ZM278.928 99.7816C279.304 99.7816 279.491 99.9692 279.491 100.345V103.722C279.491 104.098 279.304 104.285 278.928 104.285H267.366C266.991 104.285 266.803 104.098 266.803 103.722V99.7816H264.335C263.959 99.7816 263.772 99.5939 263.772 99.2186V96.0141C263.772 95.6388 263.959 95.4512 264.335 95.4512H269.012C269.906 95.4512 270.599 95.6966 271.09 96.1873C271.552 96.6781 271.783 97.371 271.783 98.2659V99.7816H278.928ZM293.002 132C292.627 132 292.439 131.812 292.439 131.437V115.761C292.439 114.606 292.165 113.711 291.616 113.076C291.097 112.412 290.346 112.08 289.365 112.08C287.863 112.08 286.824 112.831 286.247 114.332C286.189 114.505 286.088 114.635 285.944 114.722C285.799 114.779 285.655 114.779 285.51 114.722L281.57 113.596C281.397 113.538 281.267 113.451 281.18 113.336C281.122 113.191 281.122 113.033 281.18 112.859C281.844 110.954 282.912 109.482 284.385 108.442C285.857 107.403 287.632 106.884 289.711 106.884C292.338 106.884 294.402 107.706 295.904 109.352C297.434 110.969 298.199 113.177 298.199 115.977V131.437C298.199 131.812 298.011 132 297.636 132H293.002ZM312.678 132.52C310.108 132.52 308.073 131.726 306.572 130.138C305.099 128.521 304.363 126.356 304.363 123.642V107.966C304.363 107.591 304.551 107.403 304.926 107.403H309.56C309.935 107.403 310.123 107.591 310.123 107.966V121.564C310.123 123.382 310.498 124.797 311.248 125.807C311.999 126.818 313.053 127.323 314.41 127.323C315.998 127.323 317.326 126.674 318.394 125.374C319.462 124.046 319.996 122.285 319.996 120.091V107.966C319.996 107.591 320.184 107.403 320.559 107.403H325.192C325.568 107.403 325.755 107.591 325.755 107.966V131.437C325.755 131.812 325.568 132 325.192 132H320.949C320.573 132 320.386 131.812 320.386 131.437L320.256 128.622C319.419 129.864 318.336 130.831 317.008 131.524C315.709 132.188 314.265 132.52 312.678 132.52ZM332.193 112.08C331.99 112.08 331.846 112.022 331.759 111.907C331.673 111.791 331.658 111.633 331.716 111.43L333.708 105.584C333.131 105.353 332.669 104.993 332.322 104.502C332.005 103.982 331.846 103.405 331.846 102.77C331.846 101.875 332.149 101.138 332.755 100.561C333.362 99.9837 334.156 99.695 335.137 99.695C336.09 99.695 336.869 99.9837 337.476 100.561C338.082 101.11 338.385 101.831 338.385 102.726C338.385 103.361 338.255 104.083 337.995 104.892C337.735 105.7 337.288 106.782 336.653 108.139L335.007 111.647C334.863 111.936 334.632 112.08 334.314 112.08H332.193ZM340.464 112.08C340.262 112.08 340.117 112.022 340.031 111.907C339.944 111.791 339.93 111.633 339.987 111.43L341.979 105.584C341.402 105.353 340.94 104.993 340.594 104.502C340.276 103.982 340.117 103.405 340.117 102.77C340.117 101.875 340.42 101.138 341.027 100.561C341.633 99.9837 342.427 99.695 343.408 99.695C344.361 99.695 345.141 99.9837 345.747 100.561C346.353 101.11 346.656 101.831 346.656 102.726C346.656 103.361 346.526 104.083 346.266 104.892C346.007 105.7 345.559 106.782 344.924 108.139L343.278 111.647C343.134 111.936 342.903 112.08 342.586 112.08H340.464Z" fill="white"/>
<g filter="url(#filter0_d_700_182)">
<circle cx="31" cy="151" r="13" fill="#1C6F46"/>
</g>
<g filter="url(#filter1_d_700_182)">
<circle cx="23" cy="14" r="8" fill="#1C6F46"/>
</g>
<g filter="url(#filter2_d_700_182)">
<circle cx="3.5" cy="3.5" r="3.5" transform="matrix(-1 0 0 1 232 75)" fill="#1C6F46"/>
</g>
<g filter="url(#filter3_d_700_182)">
<circle cx="8.71478" cy="8.71478" r="8.71478" transform="matrix(-0.965926 0.258819 0.258819 0.965926 378.012 15.8638)" fill="#1C6F46"/>
</g>
<g filter="url(#filter4_d_700_182)">
<circle cx="8.71478" cy="8.71478" r="8.71478" transform="matrix(-0.965926 0.258819 0.258819 0.965926 383.835 117)" fill="#1C6F46"/>
</g>
<g filter="url(#filter5_d_700_182)">
<circle cx="6.92341" cy="6.92341" r="6.92341" transform="matrix(-0.965926 0.258819 0.258819 0.965926 344.032 156.924)" fill="#1C6F46"/>
</g>
<defs>
<filter id="filter0_d_700_182" x="14.5" y="138" width="33" height="33.5" filterUnits="userSpaceOnUse" color-interpolation-filters="sRGB">
<feFlood flood-opacity="0" result="BackgroundImageFix"/>
<feColorMatrix in="SourceAlpha" type="matrix" values="0 0 0 0 0 0 0 0 0 0 0 0 0 0 0 0 0 0 127 0" result="hardAlpha"/>
<feOffset dy="4"/>
<feGaussianBlur stdDeviation="1.75"/>
<feComposite in2="hardAlpha" operator="out"/>
<feColorMatrix type="matrix" values="0 0 0 0 0 0 0 0 0 0 0 0 0 0 0 0 0 0 0.25 0"/>
<feBlend mode="normal" in2="BackgroundImageFix" result="effect1_dropShadow_700_182"/>
<feBlend mode="normal" in="SourceGraphic" in2="effect1_dropShadow_700_182" result="shape"/>
</filter>
<filter id="filter1_d_700_182" x="11.5" y="6" width="23" height="23.5" filterUnits="userSpaceOnUse" color-interpolation-filters="sRGB">
<feFlood flood-opacity="0" result="BackgroundImageFix"/>
<feColorMatrix in="SourceAlpha" type="matrix" values="0 0 0 0 0 0 0 0 0 0 0 0 0 0 0 0 0 0 127 0" result="hardAlpha"/>
<feOffset dy="4"/>
<feGaussianBlur stdDeviation="1.75"/>
<feComposite in2="hardAlpha" operator="out"/>
<feColorMatrix type="matrix" values="0 0 0 0 0 0 0 0 0 0 0 0 0 0 0 0 0 0 0.25 0"/>
<feBlend mode="normal" in2="BackgroundImageFix" result="effect1_dropShadow_700_182"/>
<feBlend mode="normal" in="SourceGraphic" in2="effect1_dropShadow_700_182" result="shape"/>
</filter>
<filter id="filter2_d_700_182" x="221.5" y="75" width="14" height="14.5" filterUnits="userSpaceOnUse" color-interpolation-filters="sRGB">
<feFlood flood-opacity="0" result="BackgroundImageFix"/>
<feColorMatrix in="SourceAlpha" type="matrix" values="0 0 0 0 0 0 0 0 0 0 0 0 0 0 0 0 0 0 127 0" result="hardAlpha"/>
<feOffset dy="4"/>
<feGaussianBlur stdDeviation="1.75"/>
<feComposite in2="hardAlpha" operator="out"/>
<feColorMatrix type="matrix" values="0 0 0 0 0 0 0 0 0 0 0 0 0 0 0 0 0 0 0.25 0"/>
<feBlend mode="normal" in2="BackgroundImageFix" result="effect1_dropShadow_700_182"/>
<feBlend mode="normal" in="SourceGraphic" in2="effect1_dropShadow_700_182" result="shape"/>
</filter>
<filter id="filter3_d_700_182" x="359.633" y="17.8203" width="24.4341" height="24.9338" filterUnits="userSpaceOnUse" color-interpolation-filters="sRGB">
<feFlood flood-opacity="0" result="BackgroundImageFix"/>
<feColorMatrix in="SourceAlpha" type="matrix" values="0 0 0 0 0 0 0 0 0 0 0 0 0 0 0 0 0 0 127 0" result="hardAlpha"/>
<feOffset dy="4"/>
<feGaussianBlur stdDeviation="1.75"/>
<feComposite in2="hardAlpha" operator="out"/>
<feColorMatrix type="matrix" values="0 0 0 0 0 0 0 0 0 0 0 0 0 0 0 0 0 0 0.25 0"/>
<feBlend mode="normal" in2="BackgroundImageFix" result="effect1_dropShadow_700_182"/>
<feBlend mode="normal" in="SourceGraphic" in2="effect1_dropShadow_700_182" result="shape"/>
</filter>
<filter id="filter4_d_700_182" x="365.456" y="118.957" width="24.4341" height="24.9336" filterUnits="userSpaceOnUse" color-interpolation-filters="sRGB">
<feFlood flood-opacity="0" result="BackgroundImageFix"/>
<feColorMatrix in="SourceAlpha" type="matrix" values="0 0 0 0 0 0 0 0 0 0 0 0 0 0 0 0 0 0 127 0" result="hardAlpha"/>
<feOffset dy="4"/>
<feGaussianBlur stdDeviation="1.75"/>
<feComposite in2="hardAlpha" operator="out"/>
<feColorMatrix type="matrix" values="0 0 0 0 0 0 0 0 0 0 0 0 0 0 0 0 0 0 0.25 0"/>
<feBlend mode="normal" in2="BackgroundImageFix" result="effect1_dropShadow_700_182"/>
<feBlend mode="normal" in="SourceGraphic" in2="effect1_dropShadow_700_182" result="shape"/>
</filter>
<filter id="filter5_d_700_182" x="328.711" y="158.479" width="20.8501" height="21.3501" filterUnits="userSpaceOnUse" color-interpolation-filters="sRGB">
<feFlood flood-opacity="0" result="BackgroundImageFix"/>
<feColorMatrix in="SourceAlpha" type="matrix" values="0 0 0 0 0 0 0 0 0 0 0 0 0 0 0 0 0 0 127 0" result="hardAlpha"/>
<feOffset dy="4"/>
<feGaussianBlur stdDeviation="1.75"/>
<feComposite in2="hardAlpha" operator="out"/>
<feColorMatrix type="matrix" values="0 0 0 0 0 0 0 0 0 0 0 0 0 0 0 0 0 0 0.25 0"/>
<feBlend mode="normal" in2="BackgroundImageFix" result="effect1_dropShadow_700_182"/>
<feBlend mode="normal" in="SourceGraphic" in2="effect1_dropShadow_700_182" result="shape"/>
</filter>
</defs>
</svg>
